{"title":"Taken 2002 Miniserie DVDrip compleet Klam","uid":6301557,"size":13544015564,"categoryP":"video","categoryS":"tv_shows","magnet":"?xt=urn:btih:9d638b95cf08ac311cf3dd8ceb218e5a97bb4edc&amp;dn=Taken+2002+Miniserie+DVDrip+compleet+Klam&amp;tr=udp%3A%2F%2Ftracker.openbittorrent.com%3A80&amp;tr=udp%3A%2F%2Fopen.demonii.com%3A1337&amp;tr=udp%3A%2F%2Ftracker.coppersurfer.tk%3A6969&amp;tr=udp%3A%2F%2Fexodus.desync.com%3A6969","seeders":0,"leechers":0,"uploader":"Klambake","files":12,"time":1302168009,"description":"Taken spans five decades and four generations, centering on three families: the Keys, Crawfords, and Clarkes. World War II veteran Russell Keys is plagued by nightmares of his abduction by aliens during the war; the Roswell incident transforms Owen Crawford from ambitious Air Force captain to evil shadow government conspirator; the unhappily married Sally Clarke is impregnated by an alien visitor. As the decades go by, the heirs of each are affected by the machinations of the aliens, culminating with the birth of Allie Keys, who is the final product of the aliens' experimentation and holds the key to their future. \n\n1: Beyond the Sky\n2: Jacob and Jesse\n3: High Hopes\n4: Acid Test\n5: Maintenance\n6: Charlie and Lisa\n7: God's Equation\n8: Dropping the Dishes\n9: John\n10:Taken\n\nGeneral:\n\nComplete name                    : Taken\\Taken01.avi\nFormat                           : AVI\nFormat/Info                      : Audio Video Interleave\nFile size                        : 1.26 GiB\nDuration                         : 1h 23mn\nOverall bit rate                 : 2 156 Kbps\n\nVideo:\n\nFormat                           : MPEG-4 Visual\nFormat profile                   : Simple@L3\nFormat settings, BVOP            : No\nFormat settings, QPel            : No\nFormat settings, GMC             : No warppoints\nFormat settings, Matrix          : Default (H.263)\nCodec ID                         : XVID\nCodec ID/Hint                    : XviD\nDuration                         : 1h 23mn\nBit rate                         : 1 697 Kbps\nWidth                            : 704 pixels\nHeight                           : 396 pixels\nDisplay aspect ratio             : 16:9\nFrame rate                       : 25.000 fps\nColor space                      : YUV\nChroma subsampling               : 4:2:0\nBit depth                        : 8 bits\nScan type                        : Progressive\nBits/(Pixel*Frame)               : 0.244\nStream size                      : 1 016 MiB (79%)\nWriting library                  : XviD 1.1.2 (UTC 2006-11-01)\n\nAudio:\n\nFormat                           : AC-3\nFormat/Info                      : Audio Coding 3\nMode extension                   : CM (complete main)\nCodec ID                         : 2000\nDuration                         : 1h 23mn\nBit rate mode                    : Constant\nBit rate                         : 448 Kbps\nChannel(s)                       : 6 channels\nChannel positions                : Front: L C R, Side: L R, LFE\nSampling rate                    : 48.0 KHz\nBit depth                        : 16 bits\nStream size                      : 268 MiB (21%)\nAlignment                        : Aligned on interleaves\nInterleave, duration             : 32 ms (0.80 video frame)\nInterleave, preload duration     : 3328 ms\n\n\n","torrent":{"xt":"urn:btih:9d638b95cf08ac311cf3dd8ceb218e5a97bb4edc","amp;dn":"Taken+2002+Miniserie+DVDrip+compleet+Klam","amp;tr":["udp%3A%2F%2Ftracker.openbittorrent.com%3A80","udp%3A%2F%2Fopen.demonii.com%3A1337","udp%3A%2F%2Ftracker.coppersurfer.tk%3A6969","udp%3A%2F%2Fexodus.desync.com%3A6969"],"infoHash":"9d638b95cf08ac311cf3dd8ceb218e5a97bb4edc","infoHashBuffer":{"type":"Buffer","data":[157,99,139,149,207,8,172,49,28,243,221,140,235,33,142,90,151,187,78,220]},"announce":[],"urlList":[]}}